<svg viewBox="0 0 24 24" xmlns="http://www.w3.org/2000/svg" fill-rule="evenodd" clip-rule="evenodd" stroke-linejoin="round" stroke-miterlimit="2"><path d="M16.55 12l6.822-6.823a2.145 2.145 0 0 0 0-3.033L21.856.628a2.145 2.145 0 0 0-3.033 0L12 7.45 5.177.628a2.145 2.145 0 0 0-3.033 0L.628 2.144a2.145 2.145 0 0 0 0 3.033L7.451 12 .628 18.823a2.145 2.145 0 0 0 0 3.033l1.516 1.516a2.145 2.145 0 0 0 3.033 0L12 16.549l6.823 6.823a2.145 2.145 0 0 0 3.033 0l1.516-1.516a2.145 2.145 0 0 0 0-3.033L16.549 12z" fill="#fff" fill-rule="nonzero"/></svg>